<!DOCTYPE svg PUBLIC "-//W3C//DTD SVG 1.1//EN" "http://www.w3.org/Graphics/SVG/1.1/DTD/svg11.dtd">
<!-- Uploaded to: SVG Repo, www.svgrepo.com, Transformed by: SVG Repo Mixer Tools -->
<svg fill="#18488b" height="800px" width="800px" version="1.1" id="Capa_1" xmlns="http://www.w3.org/2000/svg" xmlns:xlink="http://www.w3.org/1999/xlink" viewBox="0 0 489 489" xml:space="preserve" stroke="#18488b">
<g id="SVGRepo_bgCarrier" stroke-width="0"/>
<g id="SVGRepo_tracerCarrier" stroke-linecap="round" stroke-linejoin="round"/>
<g id="SVGRepo_iconCarrier"> <g> <g> <path d="M347.3,83.484c-31.2,31.2-32.4,81.1-3.5,113.7l0.8,0.7c-3.1,6.8-8.5,15.1-17.1,19.3c-2.8,1.4-2.2,5.6,0.9,6.1 c9.4,1.5,22.8-0.2,35.3-9.6l0.2,0.1c31.8,18.7,73.5,14.4,100.8-12.9c32.4-32.4,32.4-85,0-117.4 C432.3,50.984,379.7,50.984,347.3,83.484z M425.3,168.684c-2.9,3.6-6.8,6-11.2,7.2c-1.9,0.5-2.8,1.6-2.7,3.6c0.1,2,0,4,0,6 c0,1.8-0.9,2.7-2.7,2.8c-2.1,0.1-4.3,0.1-6.4,0c-1.9,0-2.8-1.1-2.8-2.9c0-1.5,0-2.9,0-4.4c0-3.2-0.1-3.3-3.2-3.8 c-3.9-0.6-7.8-1.5-11.4-3.3c-2.8-1.4-3.1-2.1-2.3-5.1c0.6-2.2,1.2-4.4,1.9-6.6c0.8-2.5,1.5-2.9,3.8-1.6c4,2.1,8.2,3.2,12.7,3.8 c2.9,0.4,5.7,0.1,8.3-1.1c4.9-2.2,5.7-7.9,1.5-11.3c-1.4-1.2-3-2-4.7-2.8c-4.3-1.9-8.9-3.4-12.9-5.8c-6.6-4-10.9-9.4-10.4-17.5 c0.6-9.1,5.7-14.8,14.1-17.9c3.5-1.3,3.5-1.2,3.5-4.8c0-1.2,0-2.4,0-3.7c0.1-2.7,0.5-3.2,3.2-3.3c0.8,0,1.7,0,2.5,0 c5.8,0,5.8,0,5.8,5.8c0,4.1,0,4.1,4.1,4.7c3.1,0.5,6.1,1.4,9,2.7c1.6,0.7,2.2,1.8,1.7,3.5c-0.7,2.5-1.4,5-2.2,7.5 c-0.8,2.3-1.5,2.7-3.7,1.6c-4.5-2.2-9.2-3.1-14.2-2.8c-1.3,0.1-2.6,0.2-3.8,0.8c-4.3,1.9-5,6.6-1.3,9.6c1.9,1.5,4,2.6,6.2,3.5 c3.8,1.6,7.6,3.1,11.3,5.1C430.3,144.284,433.4,158.784,425.3,168.684z"/> <path d="M291.1,192.084v-57c0-5.1-3.6-9.7-8.6-10.3c-5.8-0.7-10.6,3.6-11,9.2c-31.3,29.7-76.3,41.2-103.5,45.7v-9.3h-62.1 c-12.3,0-22.4,10-22.4,22.4v10h-6.8c-4.1,0-7.5,3.4-7.5,7.5v28c0,4.1,3.4,7.5,7.5,7.5h6.8v8.6c0,12.3,10,22.4,22.4,22.4h5.7 l6.6,27.2c-21-2.9-43.5,18.1-43.5,18.1c-3.9,4.1-6.4,8.7-7.9,12.4l0,0c-0.4,0.9-0.7,1.8-1,2.6c-0.5,1.1-1.8,2.7-3.5,4.4 c-4,4.1-9.6,6.4-15.3,6.4H7.1c-3.9,0-7.1,3.2-7.1,7.1v65.2c0,3.9,3.2,7.1,7.1,7.1h77.7c10.7,1,28.6,2.4,46.6,2 c11.3,0.9,23.4,1,33-1.1c32.5-6.9,24.4-29.6,24.4-29.6c17.5-13.2,7.6-29.6,7.6-29.6c15.6-16.3,0.3-29.9,0.3-29.9 s8.4-13.1-2.4-23.1c-9.2-8.4-28.9-7.3-40.8-5.8l-8.4-33.5h23.1v-9.3c27.2,4.4,72.1,15.9,103.5,45.7c0.3,5.5,5.2,9.9,11,9.2 c5-0.6,8.6-5.2,8.6-10.3v-57.6c12.6-4.7,21.6-16.8,21.6-31.1C312.7,208.884,303.7,196.784,291.1,192.084z M144.4,252.884h-37.2 v-59h37.2V252.884z"/> </g> </g> </g>
</svg>